<?xml version="1.0" encoding="UTF-8"?>
<svg width="600px" height="313px" viewBox="0 0 600 313" version="1.1" xmlns="http://www.w3.org/2000/svg" xmlns:xlink="http://www.w3.org/1999/xlink">
    <title>10F379C5-5812-494E-949E-6E78D430CF96</title>
    <defs>
        <path d="M2.77347395,27.5390555 L0.249612655,0.282278015" id="path-1"></path>
    </defs>
    <g id="Page-1" stroke="none" stroke-width="1" fill="none" fill-rule="evenodd">
        <g id="404-Page" transform="translate(-420.000000, -258.000000)">
            <g id="Img" transform="translate(420.000000, 258.000000)">
                <path d="M104.926169,160.038452 L61.3733832,222.739302 L104.926169,222.739302 L104.926169,160.038452 Z M0.217050017,275.248252 L0.217050017,224.592907 L95.9678482,90.5419745 L161.449568,90.5419745 L161.449568,222.739302 L185.541812,222.739302 L185.541812,275.248252 L161.449568,275.248252 L161.449568,312.311108 L100.291386,312.311108 L100.291386,275.248252 L0.217050017,275.248252 L0.217050017,275.248252 Z" id="Fill-1" fill-opacity="0.3" fill="#0E1F3B"></path>
                <path d="M328.853374,200.500355 C328.853374,183.618836 326.847228,170.539749 322.831854,161.273572 C318.81648,152.007396 310.831957,147.37477 298.893692,147.37477 C286.949264,147.37477 278.970904,152.007396 274.95553,161.273572 C270.940156,170.539749 268.93401,183.618836 268.93401,200.500355 C268.93401,217.594816 270.940156,230.770358 274.95553,240.036226 C278.970904,249.302711 286.949264,253.935337 298.893692,253.935337 C310.831957,253.935337 318.81648,249.302711 322.831854,240.036226 C326.847228,230.770358 328.853374,217.594816 328.853374,200.500355 Z M209.319728,200.500355 C209.319728,166.524067 216.580067,139.60442 231.094581,119.730014 C245.612176,99.8608469 268.209825,89.9241061 298.893692,89.9241061 C329.574477,89.9241061 352.221433,99.9144674 366.843804,119.884713 C381.463093,139.859888 388.775819,166.732385 388.775819,200.500355 C388.775819,234.476336 381.463093,261.454841 366.843804,281.423854 C352.221433,301.399029 329.574477,311.386617 298.893692,311.386617 C268.209825,311.386617 245.612176,301.399029 231.094581,281.423854 C216.580067,261.454841 209.319728,234.476336 209.319728,200.500355 L209.319728,200.500355 Z" id="Fill-2" fill-opacity="0.3" fill="#0E1F3B"></path>
                <path d="M519.11985,160.038452 L475.570146,222.739302 L519.11985,222.739302 L519.11985,160.038452 Z M414.411964,275.248252 L414.411964,224.592907 L510.161529,90.5419745 L575.643249,90.5419745 L575.643249,222.739302 L599.735493,222.739302 L599.735493,275.248252 L575.643249,275.248252 L575.643249,312.311108 L514.488149,312.311108 L514.488149,275.248252 L414.411964,275.248252 L414.411964,275.248252 Z" id="Fill-3" fill-opacity="0.3" fill="#0E1F3B"></path>
                <g id="Group-204" transform="translate(256.964929, 101.046353)">
                    <mask id="mask-2" fill="white">
                        <use xlink:href="#path-1"></use>
                    </mask>
                    <g id="Clip-203"></g>
                    <line x1="2.77347395" y1="27.5390555" x2="0.249612655" y2="0.282278015" id="Fill-202" mask="url(#mask-2)"></line>
                </g>
                <path d="M248.040506,5.69616764 L258.212993,6.33992176 C259.461056,6.41881169 260.431772,7.4539338 260.431772,8.70415422 C260.431772,10.0018319 259.399423,11.0572928 258.102054,11.0733173 C255.223804,11.1087561 250.345571,11.0619152 247.424179,10.4425061 C246.24083,10.1919689 245.421114,9.11771 245.52589,7.91248149 L245.528972,7.85670385 C245.639911,6.57412623 246.755463,5.61481241 248.040506,5.69616764" id="Fill-211" fill="#F4C7BF"></path>
                <path d="M254.955701,3.31036372 C254.379435,5.38677121 253.914108,8.7383604 254.515027,13.658195 C254.669109,14.9198175 253.695312,16.0449234 252.422595,16.0449234 L252.228452,16.0449234 C251.22692,16.0449234 250.351735,15.3493978 250.15451,14.3666635 C249.683019,12.0021229 249.186876,7.38336429 250.894103,2.10205357 C251.180695,1.21053578 251.991166,0.58742863 252.927984,0.58742863 C254.345537,0.58742863 255.334743,1.94365739 254.955701,3.31036372" id="Fill-212" fill="#F0BBAD"></path>
                <path d="M297.359036,117.186431 C297.359036,117.14452 297.359036,117.114937 297.359036,117.114937 L297.359036,117.186431" id="Fill-223" fill="#CFE2ED"></path>
            </g>
        </g>
    </g>
</svg>