<?xml version="1.0" encoding="UTF-8"?>
<svg width="16px" height="16px" viewBox="0 0 16 16" version="1.1" xmlns="http://www.w3.org/2000/svg" xmlns:xlink="http://www.w3.org/1999/xlink">
    <title>9A50A845-563C-41B1-A90B-38D26503B0BE</title>
    <g id="Page-1" stroke="none" stroke-width="1" fill="none" fill-rule="evenodd" fill-opacity="0" stroke-linecap="round" stroke-linejoin="round">
        <g id="Home-Page" transform="translate(-171.000000, -5223.000000)" fill="#FFFFFF" stroke="#0E1F3B">
            <g id="Group-18" transform="translate(0.000000, 5168.000000)">
                <g id="Group-11" transform="translate(171.000000, 51.000000)">
                    <g id="Address" transform="translate(0.000000, 4.000000)">
                        <g id="Group" transform="translate(0.666667, 0.666667)">
                            <line x1="6" y1="8.66666667" x2="0" y2="14.6666667" id="Shape"></line>
                            <path d="M13.3289865,5.18566817 C13.4140234,5.27073078 13.5293736,5.31852061 13.6496521,5.31852061 C13.7699307,5.31852061 13.8852809,5.27073078 13.9703178,5.18566817 L14.4788935,4.67709243 C14.7292577,4.42665264 14.7292577,4.02068972 14.4788935,3.77024993 L10.8964167,0.187773125 C10.645977,-0.0625910418 10.240014,-0.0625910418 9.98957424,0.187773125 L9.4809985,0.696348869 C9.39593589,0.781385782 9.34814606,0.896736009 9.34814606,1.01701453 C9.34814606,1.13729306 9.39593589,1.25264328 9.4809985,1.3376802 C9.5660611,1.42271711 9.61385094,1.53806734 9.61385094,1.65834586 C9.61385094,1.77862439 9.5660611,1.89397461 9.4809985,1.97901153 L6.7829176,4.67709243 C6.66267263,4.79737372 6.49957409,4.86496618 6.32949635,4.86500251 L4.29519337,4.86500251 C4.12511563,4.86503883 3.96201709,4.9326313 3.84177212,5.05291259 L3.52110646,5.37357825 C3.27074229,5.62401804 3.27074229,6.02998096 3.52110646,6.28042075 L8.38624592,11.1455602 C8.63668571,11.3959244 9.04264863,11.3959244 9.29308842,11.1455602 L9.61375408,10.8248945 C9.73403537,10.7046496 9.80162784,10.541551 9.80166416,10.3714733 L9.80166416,8.33781165 C9.80170048,8.16773391 9.86929295,8.00463536 9.98957424,7.8843904 L12.6876551,5.1863095 C12.772607,5.1011618 12.8879094,5.05325658 13.008188,5.0531363 C13.1284665,5.05301602 13.2438645,5.10069055 13.3289865,5.18566817 Z" id="Shape"></path>
                        </g>
                    </g>
                </g>
            </g>
        </g>
    </g>
</svg>