<?xml version="1.0" encoding="UTF-8"?>
<svg width="216px" height="72px" viewBox="0 0 216 72" version="1.1" xmlns="http://www.w3.org/2000/svg" xmlns:xlink="http://www.w3.org/1999/xlink">
    <title>98F8119D-28FF-4987-818D-A746C901E0F1</title>
    <g id="Page-1" stroke="none" stroke-width="1" fill="none" fill-rule="evenodd">
        <g id="Home-Page" transform="translate(-1055.000000, -4884.000000)" fill-rule="nonzero">
            <g id="App-Store-Badge-US-Black" transform="translate(1055.000000, 4884.000000)">
                <path d="M198.799108,0 L17.2106037,0 C16.5486907,0 15.8947199,0 15.2345579,0.00383398754 C14.6819409,0.00743397584 14.1337282,0.0178919419 13.5758043,0.0266939132 C12.3637359,0.0409171135 11.1545178,0.147250789 9.95865843,0.344770879 C8.76447877,0.546590954 7.60770767,0.92707932 6.52746911,1.47336721 C5.44855171,2.0242765 4.46271403,2.74012665 3.60571991,3.59494832 C2.74422673,4.44736614 2.02610564,5.43264582 1.47897025,6.51290083 C0.930324802,7.59100575 0.549892274,8.74629451 0.350812069,9.9388657 C0.149839156,11.1299307 0.0416938035,12.3347309 0.0273465544,13.542454 C0.0105956617,14.0943322 0.00882670964,14.6480464 0,15.1999966 L0,56.8055294 C0.00882670964,57.3644276 0.0105956617,57.9058658 0.0273465544,58.464944 C0.0416982031,59.6726072 0.149843558,60.8773473 0.350812069,62.0683523 C0.549342554,63.2616207 0.929797575,64.4175726 1.47897025,65.4960811 C2.02585721,66.5728428 2.74407928,67.5541336 3.60571991,68.4018117 C4.45946458,69.2604342 5.44593948,69.9767714 6.52746911,70.5234648 C7.60769947,71.0712148 8.76434586,71.4539679 9.95865843,71.6589011 C11.1547211,71.854839 12.3638148,71.9612159 13.5758043,71.9771401 C14.1337282,71.98938 14.6819409,71.9964 15.2345579,71.9964 C15.8947019,72 16.5487268,72 17.2106037,72 L198.799108,72 C199.447844,72 200.107049,72 200.755785,71.9964 C201.305785,71.9964 201.869864,71.98938 202.419864,71.9771401 C203.629562,71.9620628 204.836379,71.8556791 206.02997,71.6589011 C207.228135,71.4525252 208.388928,71.0698735 209.474372,70.5234648 C210.554926,69.9764548 211.540491,69.2601372 212.393504,68.4018117 C213.252921,67.5508137 213.972677,66.5702407 214.526355,65.4960811 C215.071406,64.416788 215.44824,63.2609285 215.643863,62.0683523 C215.845153,60.8771839 215.957136,59.6727117 215.978881,58.464944 C215.985921,57.9058658 215.985921,57.3644276 215.985921,56.8055294 C216,56.1515915 216,55.5012536 216,54.8366958 L216,17.1652122 C216,16.5060364 216,15.8521345 215.985921,15.1999966 C215.985921,14.6480464 215.985921,14.0943322 215.978881,13.542382 C215.95714,12.3345543 215.845158,11.130022 215.643863,9.9387937 C215.447695,8.74691245 215.070883,7.59171523 214.526355,6.51282883 C213.412139,4.34757281 211.645315,2.58507131 209.474372,1.47320521 C208.388925,0.928252268 207.228008,0.547864957 206.02997,0.34460888 C204.836586,0.146218534 203.629642,0.0398478473 202.419864,0.0264419141 C201.869864,0.0176579426 201.305785,0.00710997689 200.755785,0.0035999883 C200.107049,0 199.447844,0 198.799108,0 L198.799108,0 Z" id="Background-Gray"></path>
                <path d="M16.6130618,70.9964446 C16.0652903,70.9964446 15.5307509,70.9895117 14.9872762,70.9774234 C13.8614244,70.9629188 12.738204,70.8660071 11.6268268,70.687483 C10.5905237,70.511009 9.58662447,70.1827351 8.64824252,69.7134895 C7.71846502,69.2481319 6.8704332,68.6379419 6.13663403,67.9062951 C5.39221328,67.1832667 4.772449,66.3446771 4.30190134,65.4237582 C3.82616864,64.4968541 3.4969333,63.5033246 3.32566411,62.4777789 C3.14070825,61.3758186 3.04063947,60.2615628 3.02632065,59.1446199 C3.01492223,58.7697062 3,57.5214159 3,57.5214159 L3,16.4559009 C3,16.4559009 3.01589307,15.2267918 3.02641054,14.8656907 C3.0401207,13.7505171 3.13960758,12.6379904 3.32401008,11.5377402 C3.49559541,10.5093853 3.82508563,9.51299077 4.30107432,8.5830503 C4.76989261,7.66276748 5.38621608,6.82355171 6.12615252,6.09793579 C6.86525728,5.36542551 7.71600179,4.75209349 8.64736157,4.28030639 C9.58358685,3.81256836 10.5855888,3.48661019 11.6197972,3.3133525 C12.7348243,3.13303507 13.8619441,3.03554674 14.991699,3.02170553 L16.6139428,3 L201.377266,3 L203.01889,3.0225766 C204.138369,3.03573004 205.25525,3.13234865 206.360031,3.31161037 C207.404709,3.48704132 208.417153,3.81527388 209.364073,4.28551501 C211.229924,5.23630271 212.748131,6.74053855 213.705901,8.58738785 C214.174293,9.51090856 214.498701,10.4991755 214.668115,11.5186479 C214.854714,12.6279257 214.959147,13.749195 214.980583,14.8735125 C214.985797,15.3769528 214.985797,15.9177246 214.985797,16.4559009 C215,17.1225327 215,17.7570417 215,18.3967594 L215,55.6013385 C215,56.2471714 215,56.8773607 214.985797,57.5127052 C214.985797,58.0908083 214.985797,58.6203806 214.978785,59.1654188 C214.957813,60.2696734 214.855121,61.3709288 214.671531,62.4603576 C214.503773,63.4933012 214.17633,64.4945857 213.700688,65.4290913 C213.226814,66.3400146 212.610608,67.1713401 211.874782,67.8924292 C211.140323,68.6280078 210.290795,69.2417678 209.358859,69.7101119 C208.414563,70.1829648 207.403608,70.5124527 206.360031,70.687483 C205.248738,70.8669598 204.125409,70.9638777 202.999474,70.9774234 C202.472881,70.9895117 201.921478,70.9964446 201.386075,70.9964446 L199.437196,71 L16.6130618,70.9964446 Z" id="Background-Black" fill="#000000"></path>
                <path d="M76.2684806,48.6144956 L67.6921725,48.6144956 L65.632583,54.6311177 L62,54.6311177 L70.1233404,32.3711665 L73.8974668,32.3711665 L82.0208072,54.6311177 L78.3262763,54.6311177 L76.2684806,48.6144956 Z M68.5804058,45.8381323 L75.3785441,45.8381323 L72.0272902,36.0735998 L71.9335078,36.0735998 L68.5804058,45.8381323 Z M99.5644612,46.5173494 C99.5644612,51.5606678 96.8360378,54.8009086 92.7186345,54.8009086 C90.5903847,54.9110514 88.5856896,53.8082106 87.5572857,51.961501 L87.4793753,51.961501 L87.4793753,60 L84.112195,60 L84.112195,38.4018243 L87.3714965,38.4018243 L87.3714965,41.1011616 L87.4334262,41.1011616 C88.5075181,39.2660294 90.5143749,38.1636633 92.6567048,38.2320155 C96.820039,38.2320335 99.5644612,41.4880309 99.5644612,46.5173494 Z M96.1034986,46.5173494 C96.1034986,43.2315956 94.387168,41.0714052 91.7684533,41.0714052 C89.1957421,41.0714052 87.4652608,43.2770906 87.4652608,46.5173494 C87.4652608,49.7873645 89.1957421,51.9772934 91.7684533,51.9772934 C94.3871861,51.9772934 96.1034986,49.8328775 96.1034986,46.5173494 Z M117.619461,46.5173494 C117.619461,51.5606678 114.891038,54.8009086 110.773635,54.8009086 C108.645385,54.9110514 106.64069,53.8082106 105.612286,51.961501 L105.534375,51.961501 L105.534375,60 L102.167195,60 L102.167195,38.4018243 L105.426424,38.4018243 L105.426424,41.1011616 L105.488354,41.1011616 C106.562454,39.2660305 108.569318,38.1636709 110.711651,38.2320335 C114.875112,38.2320335 117.619461,41.4880309 117.619461,46.5173494 Z M114.158517,46.5173494 C114.158517,43.2315956 112.442168,41.0714052 109.823453,41.0714052 C107.250742,41.0714052 105.520261,43.2770906 105.520261,46.5173494 C105.520261,49.7873645 107.250742,51.9772934 109.823453,51.9772934 C112.442186,51.9772934 114.158517,49.8328775 114.158517,46.5173494 L114.158517,46.5173494 Z M129.552332,48.4289303 C129.801827,50.6363725 131.969367,52.085743 134.931323,52.085743 C137.769455,52.085743 139.811342,50.6363008 139.811342,48.6459191 C139.811342,46.9181289 138.579832,45.8835915 135.663862,45.1746 L132.747892,44.4796263 C128.616338,43.4923227 126.698292,41.5807239 126.698292,38.4787608 C126.698292,34.6380677 130.081398,32 134.885319,32 C139.639668,32 142.898951,34.6380677 143.00866,38.4787608 L139.609591,38.4787608 C139.406118,36.2573187 137.550001,34.9164157 134.837504,34.9164157 C132.125007,34.9164157 130.268909,36.2730932 130.268909,38.2477004 C130.268909,39.8214384 131.454416,40.7474725 134.354459,41.4563743 L136.833388,42.0585653 C141.449763,43.1386516 143.367809,44.9732602 143.367809,48.2292217 C143.367809,52.3937578 140.014779,55.0020691 134.681792,55.0020691 C129.692064,55.0020691 126.323126,52.4550273 126.105484,48.428769 L129.552332,48.4289303 Z M150.634787,34.5611313 L150.634787,38.4018243 L153.754248,38.4018243 L153.754248,41.039892 L150.634787,41.039892 L150.634787,49.9869118 C150.634787,51.3768412 151.259393,52.0245452 152.630671,52.0245452 C153.001002,52.0181564 153.370733,51.9924273 153.738322,51.9474653 L153.738322,54.5697765 C153.121793,54.6837464 152.495144,54.7353629 151.868055,54.7238287 C148.546896,54.7238287 147.25168,53.4896902 147.25168,50.3422142 L147.25168,41.039892 L144.866534,41.039892 L144.866534,38.4018243 L147.251644,38.4018243 L147.251644,34.5611313 L150.634787,34.5611313 Z M155.560882,46.5173494 C155.560882,41.4110227 158.600712,38.2022771 163.340964,38.2022771 C168.097124,38.2022771 171.122803,41.410951 171.122803,46.5173494 C171.122803,51.6376939 168.11305,54.8324217 163.340964,54.8324217 C158.570562,54.8324217 155.560882,51.6376759 155.560882,46.5173494 Z M167.691917,46.5173494 C167.691917,43.0145171 166.069369,40.9471273 163.340946,40.9471273 C160.612522,40.9471273 158.99175,43.0302737 158.99175,46.5173494 C158.99175,50.0341815 160.612522,52.0858327 163.340946,52.0858327 C166.069369,52.0858327 167.691917,50.0341815 167.691917,46.5173494 L167.691917,46.5173494 Z M173.898915,38.4018243 L177.110401,38.4018243 L177.110401,41.164152 L177.188311,41.164152 C177.636162,39.3859164 179.283074,38.1620728 181.134076,38.2319976 C181.522114,38.2306572 181.909081,38.2723494 182.28773,38.3562934 L182.28773,41.4722564 C181.797857,41.3241614 181.286834,41.2561661 180.774818,41.2709524 C179.7849,41.2312212 178.826878,41.6215309 178.152302,42.3393978 C177.477725,43.0572646 177.153988,44.030969 177.266095,45.004845 L177.266095,54.6310819 L173.898915,54.6310819 L173.898915,38.4018243 Z M197.812435,49.8643727 C197.359468,52.8105269 194.459406,54.8324038 190.748967,54.8324038 C185.97688,54.8324038 183.014906,51.6691711 183.014906,46.5943575 C183.014906,41.5037874 185.992806,38.2022591 190.607423,38.2022591 C195.145942,38.2022591 198,41.286709 198,46.2074883 L198,47.3488441 L186.413939,47.3488441 L186.413939,47.550148 C186.305766,48.7583869 186.727468,49.9543759 187.571779,50.833894 C188.416089,51.7134121 189.601631,52.191689 190.826841,52.1470664 C192.460862,52.2985366 194.001425,51.3702404 194.615136,49.8643548 L197.812435,49.8643727 Z M186.429834,45.0206374 L194.631044,45.0206374 C194.69215,43.934936 194.292689,42.8732514 193.528901,42.091354 C192.765114,41.3094565 191.706252,40.8782401 190.607423,40.9015964 C189.499902,40.8950576 188.435626,41.3264761 187.651149,42.0999613 C186.866672,42.8734464 186.426996,43.9249074 186.429834,45.0206374 L186.429834,45.0206374 Z" id="App-Store" fill="#FFFFFF"></path>
                <path d="M69.8339994,16.5086178 C71.2374527,16.4106729 72.6121041,16.9299531 73.5795901,17.92353 C74.5470761,18.9171069 75.0054183,20.2802521 74.8284611,21.637769 C74.8284611,24.9355673 72.9957188,26.8312066 69.8339994,26.8312066 L66,26.8312066 L66,16.5086178 L69.8339994,16.5086178 Z M67.6485911,25.3713697 L69.6498482,25.3713697 C70.6528283,25.4296739 71.6294322,25.0453682 72.3084934,24.3251598 C72.9875546,23.6049514 73.2967783,22.6255159 73.1503048,21.6588057 C73.2861217,20.6961073 72.9724448,19.7247539 72.2950673,19.0104188 C71.6176898,18.2960838 70.6474983,17.9135211 69.6498482,17.9673648 L67.6485911,17.9673648 L67.6485911,25.3713697 Z M76.6907331,22.9326684 C76.5533795,21.5363655 77.2418414,20.1850457 78.4673797,19.4454486 C79.692918,18.7058516 81.2436407,18.7058516 82.469179,19.4454486 C83.6947173,20.1850457 84.3831791,21.5363655 84.2458255,22.9326684 C84.3857925,24.3304717 83.697959,25.6844125 82.4713341,26.4256018 C81.2447091,27.166791 79.6918495,27.166791 78.4652246,26.4256018 C77.2385997,25.6844125 76.5507662,24.3304717 76.6907331,22.9326684 Z M82.6198086,22.9326684 C82.6198086,21.2440746 81.8397808,20.2565948 80.4708854,20.2565948 C79.09676,20.2565948 78.3237589,21.2440746 78.3237589,22.9326857 C78.3237589,24.6348081 79.0968134,25.6146759 80.4708854,25.6146759 C81.8398164,25.6146759 82.6198086,24.6280265 82.6198086,22.9326684 L82.6198086,22.9326684 Z M94.2885961,26.8310509 L92.648686,26.8310509 L90.9931394,21.0936863 L90.8680653,21.0936863 L89.2194564,26.8310509 L87.595165,26.8310509 L85.3871825,19.0410155 L86.9906252,19.0410155 L88.4255532,24.98527 L88.5436897,24.98527 L90.1905553,19.0410155 L91.7071346,19.0410155 L93.3540001,24.98527 L93.4790743,24.98527 L94.9070468,19.0410155 L96.4878976,19.0410155 L94.2885961,26.8310509 Z M98.3449574,19.0410155 L99.8667489,19.0410155 L99.8667489,20.2785311 L99.9848853,20.2785311 C100.395694,19.3673924 101.355636,18.8100398 102.375276,18.8906446 C103.164779,18.8329178 103.938437,19.1274631 104.477807,19.6911157 C105.017176,20.2547683 105.263727,21.0263615 105.147844,21.7880361 L105.147844,26.8309644 L103.566993,26.8309644 L103.566993,22.1741013 C103.566993,20.9222267 103.00762,20.2996543 101.838476,20.2996543 C101.302968,20.2753983 100.783272,20.4797856 100.415635,20.8592321 C100.047999,21.2386787 99.8690882,21.755341 99.9258082,22.2737661 L99.9258082,26.8310509 L98.3449574,26.8310509 L98.3449574,19.0410155 Z M107.666795,16 L109.247646,16 L109.247646,26.8310336 L107.666795,26.8310336 L107.666795,16 Z M111.445204,22.9326684 C111.307956,21.5362742 111.996526,20.1849201 113.222156,19.4453117 C114.447785,18.7057033 115.998587,18.7057033 117.224217,19.4453117 C118.449846,20.1849201 119.138416,21.5362742 119.001168,22.9326684 C119.140957,24.3305217 118.452998,25.6844243 117.226312,26.4255809 C115.999626,27.1667375 114.446746,27.1667375 113.22006,26.4255809 C111.993374,25.6844243 111.305415,24.3305217 111.445204,22.9326684 L111.445204,22.9326684 Z M117.37428,22.9326684 C117.37428,21.2440746 116.594252,20.2565948 115.225356,20.2565948 C113.851231,20.2565948 113.07823,21.2440746 113.07823,22.9326857 C113.07823,24.6348081 113.851284,25.6146759 115.225356,25.6146759 C116.59427,25.6146759 117.37428,24.6280265 117.37428,22.9326684 L117.37428,22.9326684 Z M120.665414,24.6280265 C120.665414,23.225781 121.739012,22.4173901 123.644707,22.3025013 L125.814479,22.1808655 L125.814479,21.5084693 C125.814479,20.6857022 125.255105,20.2211127 124.174569,20.2211127 C123.292077,20.2211127 122.680582,20.5361962 122.505111,21.0869566 L120.974639,21.0869566 C121.136198,19.7489112 122.430416,18.8906792 124.247521,18.8906792 C126.255734,18.8906792 127.388392,19.862935 127.388392,21.5084693 L127.388392,26.8310682 L125.866601,26.8310682 L125.866601,25.7363116 L125.741527,25.7363116 C125.224666,26.5357868 124.30552,27.0030351 123.3355,26.9594164 C122.655492,27.028204 121.977297,26.814029 121.468577,26.3698392 C120.959857,25.9256494 120.668093,25.292903 120.665414,24.6280265 L120.665414,24.6280265 Z M125.814479,23.9623773 L125.814479,23.3111043 L123.858388,23.4327401 C122.75526,23.5045347 122.254945,23.8694594 122.254945,24.5562145 C122.254945,25.2573286 122.880334,25.6653301 123.740323,25.6653301 C124.249418,25.7154477 124.757631,25.5624907 125.148621,25.2414742 C125.539612,24.9204578 125.7799,24.4588697 125.814479,23.9623773 Z M129.466071,22.9326684 C129.466071,20.4711485 130.767243,18.9117851 132.791075,18.9117851 C133.813009,18.8659924 134.770145,19.3985235 135.24748,20.2784792 L135.365616,20.2784792 L135.365616,16 L136.946467,16 L136.946467,26.8310336 L135.431631,26.8310336 L135.431631,25.600265 L135.306557,25.600265 C134.79314,26.47292 133.824212,26.9964494 132.791092,26.9594164 C130.75335,26.9595029 129.466071,25.4001049 129.466071,22.9326684 Z M131.099096,22.9326684 C131.099096,24.5849497 131.899955,25.5791937 133.239338,25.5791937 C134.571731,25.5791937 135.395199,24.5706081 135.395199,22.9394327 C135.395199,21.3158693 134.563086,20.2929073 133.239338,20.2929073 C131.908583,20.2929073 131.099043,21.2938983 131.099043,22.9326684 L131.099096,22.9326684 Z M143.487038,22.9326684 C143.349684,21.5363655 144.038146,20.1850457 145.263684,19.4454486 C146.489223,18.7058516 148.039945,18.7058516 149.265484,19.4454486 C150.491022,20.1850457 151.179484,21.5363655 151.04213,22.9326684 C151.182097,24.3304717 150.494264,25.6844125 149.267639,26.4256018 C148.041014,27.166791 146.488154,27.166791 145.261529,26.4256018 C144.034904,25.6844125 143.347071,24.3304717 143.487038,22.9326684 L143.487038,22.9326684 Z M149.416095,22.9326684 C149.416095,21.2440746 148.636085,20.2565948 147.26719,20.2565948 C145.893065,20.2565948 145.120064,21.2440746 145.120064,22.9326857 C145.120064,24.6348081 145.893118,25.6146759 147.26719,25.6146759 C148.636103,25.6146759 149.416095,24.6280265 149.416095,22.9326684 Z M153.163249,19.0410155 L154.685041,19.0410155 L154.685041,20.2785311 L154.803177,20.2785311 C155.213986,19.3673924 156.173928,18.8100398 157.193568,18.8906446 C157.983071,18.8329178 158.756729,19.1274631 159.296098,19.6911157 C159.835468,20.2547683 160.082018,21.0263615 159.966136,21.7880361 L159.966136,26.8309644 L158.385285,26.8309644 L158.385285,22.1741013 C158.385285,20.9222267 157.825911,20.2996543 156.656768,20.2996543 C156.12126,20.2753983 155.601563,20.4797856 155.233927,20.8592321 C154.866291,21.2386787 154.68738,21.755341 154.7441,22.2737661 L154.7441,26.8310509 L153.163249,26.8310509 L153.163249,19.0410155 Z M168.89884,17.1015382 L168.89884,19.0764977 L170.634313,19.0764977 L170.634313,20.3714663 L168.89884,20.3714663 L168.89884,24.377143 C168.89884,25.1931459 169.244551,25.5504585 170.031498,25.5504585 C170.232968,25.5498315 170.434236,25.5379847 170.634313,25.5149764 L170.634313,26.7955688 C170.350418,26.8449613 170.062781,26.8712387 169.774395,26.8741278 C168.016348,26.8741278 167.316246,26.2726785 167.316246,24.7707682 L167.316246,20.3713971 L166.044621,20.3713971 L166.044621,19.0764285 L167.316246,19.0764285 L167.316246,17.1015382 L168.89884,17.1015382 Z M172.793642,16 L174.3606,16 L174.3606,20.29289 L174.485674,20.29289 C174.916216,19.3737771 175.892958,18.8157143 176.928097,18.8974088 C177.713117,18.855867 178.476302,19.1568969 179.009777,19.7185046 C179.543251,20.2801123 179.791451,21.0438031 179.686772,21.8015647 L179.686772,26.8310509 L178.104338,26.8310509 L178.104338,22.1808309 C178.104338,20.9365511 177.508408,20.306384 176.391458,20.306384 C175.841475,20.2625177 175.299624,20.4569642 174.910763,20.83774 C174.521902,21.2185157 174.325684,21.7467936 174.374564,22.2813435 L174.374564,26.8310509 L172.793713,26.8310509 L172.793642,16 Z M188.904456,24.7276914 C188.461167,26.1971116 186.99899,27.1465203 185.433529,26.9814046 C184.365416,27.0088253 183.3389,26.5782656 182.62634,25.8039633 C181.91378,25.0296609 181.587213,23.9898944 181.733284,22.9605386 C181.591093,21.928322 181.916436,20.8868895 182.625028,20.1060456 C183.33362,19.3252017 184.355735,18.8817814 185.426573,18.8906619 C187.655404,18.8906619 189,20.3715355 189,22.817745 L189,23.3541984 L183.343665,23.3541984 L183.343665,23.440352 C183.29361,24.018412 183.496615,24.5901877 183.902755,25.0150617 C184.308895,25.4399356 184.880484,25.6784848 185.476951,25.6720424 C186.250365,25.7623388 187.00323,25.3892458 187.382664,24.7276395 L188.904456,24.7276914 Z M183.343629,22.2171781 L187.389566,22.2171781 C187.429863,21.6884931 187.238713,21.1678426 186.863221,20.7835317 C186.487729,20.3992208 185.962817,20.1869907 185.417839,20.1991418 C184.865478,20.1923929 184.333723,20.4028678 183.943199,20.782822 C183.552676,21.1627762 183.336484,21.6800045 183.343665,22.2171781 L183.343629,22.2171781 Z" id="Download-on-the" fill="#FFFFFF"></path>
                <path d="M44.7272089,38.7401117 C44.7666875,35.7017913 46.3731146,32.8953076 48.9836759,31.3039166 C47.3293091,28.961142 44.6576912,27.5290246 41.7747609,27.4395867 C38.7416833,27.1239112 35.8012467,29.2392023 34.2556457,29.2392023 C32.6801338,29.2392023 30.3004383,27.4709286 27.7378991,27.5232069 C24.3662658,27.6312172 21.2991877,29.4859176 19.6588194,32.4087272 C16.165589,38.405631 18.7712246,47.2190605 22.1174468,52.0665049 C23.7916325,54.4401607 25.748275,57.0915952 28.3085022,56.9975695 C30.8138384,56.8945352 31.7495329,55.4134965 34.7736878,55.4134965 C37.7697741,55.4134965 38.6476514,56.9975695 41.2598256,56.9377871 C43.948168,56.8945173 45.6419512,54.5535825 47.2573987,52.1574501 C48.4602984,50.4661337 49.3859278,48.5968607 50,46.6188722 C46.8070656,45.2798235 44.7309356,42.1776086 44.7272089,38.7401117 L44.7272089,38.7401117 Z M39.7932829,24.2515791 C41.2590789,22.5068062 41.9812209,20.2641964 41.8063517,18 C39.5669415,18.2332204 37.4983537,19.2944733 36.0127551,20.9723038 C34.5457947,22.6277091 33.8026359,24.7934225 33.9469626,26.9924364 C36.2164007,27.0156057 38.3711843,26.0054054 39.7932829,24.2515791 L39.7932829,24.2515791 Z" id="Icon" fill="#FFFFFF"></path>
            </g>
        </g>
    </g>
</svg>