<?xml version="1.0" encoding="UTF-8"?>
<svg width="16px" height="16px" viewBox="0 0 16 16" version="1.1" xmlns="http://www.w3.org/2000/svg" xmlns:xlink="http://www.w3.org/1999/xlink">
    <title>590E6478-38D7-49FC-AEA8-0873029B1E62</title>
    <g id="Page-1" stroke="none" stroke-width="1" fill="none" fill-rule="evenodd" stroke-linecap="round" stroke-linejoin="round">
        <g id="Home-Page" transform="translate(-171.000000, -5363.000000)" stroke="#0E1F3B">
            <g id="Group-18" transform="translate(0.000000, 5168.000000)">
                <g id="Group-7" transform="translate(171.000000, 191.000000)">
                    <g id="Phone" transform="translate(0.000000, 4.000000)">
                        <g id="Group" transform="translate(0.666667, 0.666667)">
                            <path d="M10,14 L10.5925926,14 C11.7386667,14 12.6666667,13.3120567 12.6666667,12.065764 L12.6666667,10.6666667" id="Shape"></path>
                            <path d="M12,5.33333333 C13.2983677,5.33239472 14.4083706,6.28857106 14.6280129,7.597152 C14.8476552,8.90573294 14.1129821,10.1856899 12.8886207,10.6275435 C12.6847746,10.701409 12.4585488,10.669481 12.2818889,10.5419132 C12.1052289,10.4143454 12.0001239,10.2070166 12,9.98586253 L12,5.33333333 Z" id="Shape"></path>
                            <path d="M2.66666667,5.33333333 C1.36829894,5.33239472 0.258296037,6.28857106 0.0386537643,7.597152 C-0.180988508,8.90573294 0.553684617,10.1856899 1.77804601,10.6275435 C1.9818921,10.701409 2.20811782,10.669481 2.38477781,10.5419132 C2.5614378,10.4143454 2.66654274,10.2070166 2.66666667,9.98586253 L2.66666667,5.33333333 Z" id="Shape"></path>
                            <path d="M12,6 L12,4.73684211 C12,2.12075645 9.91066217,0 7.33333333,0 C4.7560045,0 2.66666667,2.12075645 2.66666667,4.73684211 L2.66666667,6" id="Shape"></path>
                            <path d="M7.27272727,13.3333333 L9.6969697,13.3333333 C9.86432871,13.3333333 10,13.4825718 10,13.6666667 L10,14.3333333 C10,14.5174282 9.86432871,14.6666667 9.6969697,14.6666667 L7.27272727,14.6666667 C6.93800924,14.6666667 6.66666667,14.3681898 6.66666667,14 L6.66666667,14 C6.66666667,13.6318102 6.93800924,13.3333333 7.27272727,13.3333333 Z" id="Shape"></path>
                        </g>
                    </g>
                </g>
            </g>
        </g>
    </g>
</svg>