<?xml version="1.0" encoding="UTF-8"?>
<svg width="18px" height="18px" viewBox="0 0 18 18" version="1.1" xmlns="http://www.w3.org/2000/svg" xmlns:xlink="http://www.w3.org/1999/xlink">
    <title>720A1DB6-2933-4AC1-BA46-414862EA4F8E</title>
    <g id="Page-1" stroke="none" stroke-width="1" fill="none" fill-rule="evenodd">
        <g id="Home-Page" transform="translate(-171.000000, -5625.000000)" fill="#0E1F3B" fill-rule="nonzero">
            <g id="Group-18" transform="translate(0.000000, 5168.000000)">
                <g id="Icon/facebook" transform="translate(171.000000, 457.000000)">
                    <path d="M14.6625,10.92 C14.6396162,11.1093619 14.4782346,11.2513777 14.2875,11.25 L12.75,11.25 C12.5428932,11.25 12.375,11.4178932 12.375,11.625 L12.375,17.625 C12.375,17.8321068 12.5428932,18 12.75,18 L17.25,18 C17.6642136,18 18,17.6642136 18,17.25 L18,0.75 C18,0.335786438 17.6642136,0 17.25,0 L0.75,0 C0.335786438,0 0,0.335786438 0,0.75 L0,17.25 C0,17.6642136 0.335786438,18 0.75,18 L9,18 C9.20710678,18 9.375,17.8321068 9.375,17.625 L9.375,11.625 C9.375,11.4178932 9.20710678,11.25 9,11.25 L7.5,11.25 C7.29289322,11.25 7.125,11.0821068 7.125,10.875 L7.125,8.625 C7.125,8.41789322 7.29289322,8.25 7.5,8.25 L9,8.25 C9.20710678,8.25 9.375,8.08210678 9.375,7.875 L9.375,6.8925 C9.375,4.53562483 11.2856248,2.625 13.6425,2.625 L14.625,2.625 C14.7244562,2.625 14.8198389,2.66450882 14.890165,2.73483496 C14.9604912,2.8051611 15,2.90054382 15,3 L15,5.25 C15,5.45710678 14.8321068,5.625 14.625,5.625 L13.6425,5.625 C12.9424791,5.625 12.375,6.19247908 12.375,6.8925 L12.375,7.875 C12.375,8.08210678 12.5428932,8.25 12.75,8.25 L14.5725,8.25 C14.6802674,8.2492209 14.7831609,8.29484439 14.8549376,8.37523429 C14.9267143,8.45562418 14.9604352,8.56300884 14.9475,8.67 L14.6625,10.92 Z" id="Shape"></path>
                </g>
            </g>
        </g>
    </g>
</svg>