<?xml version="1.0" encoding="UTF-8"?>
<svg width="218px" height="64px" viewBox="0 0 218 64" version="1.1" xmlns="http://www.w3.org/2000/svg" xmlns:xlink="http://www.w3.org/1999/xlink">
    <title>B5AD060E-B055-4293-83A3-21C37DDB6882</title>
    <defs>
        <linearGradient x1="60.9524965%" y1="4.9481245%" x2="26.6760974%" y2="71.9074222%" id="linearGradient-1">
            <stop stop-color="#00A0FF" offset="0%"></stop>
            <stop stop-color="#00A1FF" offset="1%"></stop>
            <stop stop-color="#00BEFF" offset="26%"></stop>
            <stop stop-color="#00D2FF" offset="51%"></stop>
            <stop stop-color="#00DFFF" offset="76%"></stop>
            <stop stop-color="#00E3FF" offset="100%"></stop>
        </linearGradient>
        <linearGradient x1="107.684729%" y1="50%" x2="-130.640394%" y2="50%" id="linearGradient-2">
            <stop stop-color="#FFE000" offset="0%"></stop>
            <stop stop-color="#FFBD00" offset="41%"></stop>
            <stop stop-color="#FFA500" offset="78%"></stop>
            <stop stop-color="#FF9C00" offset="100%"></stop>
        </linearGradient>
        <linearGradient x1="86.219293%" y1="30.7693371%" x2="-50.1497903%" y2="136.626966%" id="linearGradient-3">
            <stop stop-color="#FF3A44" offset="0%"></stop>
            <stop stop-color="#C31162" offset="100%"></stop>
        </linearGradient>
        <linearGradient x1="-18.7537448%" y1="-12.2913442%" x2="42.1210306%" y2="34.983975%" id="linearGradient-4">
            <stop stop-color="#32A071" offset="0%"></stop>
            <stop stop-color="#2DA771" offset="7%"></stop>
            <stop stop-color="#15CF74" offset="48%"></stop>
            <stop stop-color="#06E775" offset="80%"></stop>
            <stop stop-color="#00F076" offset="100%"></stop>
        </linearGradient>
    </defs>
    <g id="Page-1" stroke="none" stroke-width="1" fill="none" fill-rule="evenodd">
        <g id="Home-Page" transform="translate(-1055.000000, -4986.000000)" fill-rule="nonzero">
            <g id="Group-6" transform="translate(1055.000000, 4884.000000)">
                <g id="Google-Play-Badge-US" transform="translate(0.312500, 102.000000)">
                    <rect id="Background-Black" fill="#000000" x="0.6875" y="0" width="216" height="64" rx="5"></rect>
                    <path d="M208.6875,1.28 C212.398854,1.28 215.4075,4.28864648 215.4075,8 L215.4075,56 C215.4075,59.7113535 212.398854,62.72 208.6875,62.72 L8.6875,62.72 C4.97614648,62.72 1.9675,59.7113535 1.9675,56 L1.9675,8 C1.9675,4.28864648 4.97614648,1.28 8.6875,1.28 L208.6875,1.28 L208.6875,1.28 Z M208.6875,0 L8.6875,0 C4.269222,0 0.6875,3.581722 0.6875,8 L0.6875,56 C0.6875,60.418278 4.269222,64 8.6875,64 L208.6875,64 C213.105778,64 216.6875,60.418278 216.6875,56 L216.6875,8 C216.6875,3.581722 213.105778,0 208.6875,0 Z" id="Border-Gray"></path>
                    <path d="M109.341975,34.549797 C105.588316,34.5673154 102.558027,37.5961887 102.569755,41.3188176 C102.581552,45.0414464 105.630923,48.0514262 109.384618,48.0456226 C113.138313,48.0398022 116.178192,45.0203942 116.178233,41.2977471 C116.204607,39.4946532 115.491776,37.7581849 114.203011,36.4860676 C112.914246,35.2139503 111.159965,34.5151771 109.341975,34.549797 L109.341975,34.549797 Z M109.341975,45.3941497 C107.650085,45.511493 106.057806,44.5912445 105.326708,43.0735489 C104.59561,41.5558533 104.874289,39.7491843 106.029457,38.517652 C107.184624,37.2861197 108.981491,36.8800347 110.560634,37.4936229 C112.139778,38.1072111 113.180236,39.61576 113.184368,41.2977471 C113.236469,42.3499064 112.857817,43.3783271 112.134339,44.1496325 C111.41086,44.920938 110.403904,45.3697243 109.341975,45.3941497 L109.341975,45.3941497 Z M94.4366898,34.549797 C90.6809093,34.5585611 87.6425816,37.583591 87.648461,41.3083072 C87.6543575,45.0330234 90.7022342,48.0485909 94.4580239,48.0456785 C98.2138135,48.0427619 101.256928,45.0224679 101.256938,41.2977471 C101.283312,39.4946532 100.570481,37.7581849 99.2817161,36.4860676 C97.992951,35.2139503 96.2386705,34.5151771 94.4206798,34.549797 L94.4366898,34.549797 Z M94.4366898,45.3941497 C92.7439165,45.5181104 91.146995,44.6024505 90.4107446,43.0857103 C89.6744943,41.5689701 89.9488105,39.7599473 91.1023141,38.5250436 C92.2558176,37.29014 94.0536633,36.8807733 95.6348023,37.493003 C97.2159413,38.1052327 98.2584648,39.6144132 98.2630734,41.2977471 C98.3151743,42.3499064 97.9365223,43.3783271 97.2130438,44.1496325 C96.4895654,44.920938 95.4826087,45.3697243 94.4206798,45.3941497 L94.4366898,45.3941497 Z M76.6816295,36.6297534 L76.6816295,39.4877087 L83.597938,39.4877087 C83.4894919,40.8338117 82.9252703,42.1039993 81.9969406,43.0919079 C80.5977056,44.5053647 78.6613319,45.2665865 76.6656196,45.1877418 C72.4214288,45.1877418 68.9808325,41.775608 68.9808325,37.5665277 C68.9808325,33.3574473 72.4214288,29.9453135 76.6656196,29.9453135 C78.6153073,29.9137789 80.498026,30.6503585 81.9008808,31.9935148 L83.9341474,29.9770685 C82.0208268,28.0556622 79.4044752,26.9845577 76.6816295,27.0079705 C72.8055522,26.8583709 69.1575722,28.8238388 67.1746738,32.1301521 C65.1917754,35.4364655 65.1917754,39.553692 67.1746738,42.8600054 C69.1575722,46.1663188 72.8055522,48.1317867 76.6816295,47.982187 C79.4541807,48.1064356 82.1454183,47.0353722 84.0622272,45.0448441 C85.7395532,43.2172159 86.6350989,40.814691 86.559783,38.3445266 C86.5649492,37.7427495 86.5113323,37.1418908 86.3996833,36.5503658 L76.6816295,36.6297534 Z M149.222818,38.8526075 C148.368013,36.3585812 146.049526,34.6467342 143.395188,34.5497849 C141.625067,34.5463648 139.932463,35.2696962 138.719282,36.5480374 C137.506101,37.8263786 136.880562,39.5456984 136.991198,41.2977471 C136.951879,43.0907904 137.649472,44.8226036 138.923686,46.0952603 C140.1979,47.3679169 141.939174,48.0719884 143.747407,48.0456971 C146.022198,48.0578577 148.15118,46.9365652 149.414938,45.0607216 L147.093492,43.4729686 C146.388646,44.6382875 145.117631,45.3499578 143.747407,45.3465171 C142.328269,45.4001596 141.020334,44.5878885 140.449353,43.2983158 L149.559027,39.5670964 L149.222818,38.8526075 Z M139.937034,41.1072167 C139.871476,40.1151319 140.211326,39.1386333 140.879968,38.397861 C141.54861,37.6570888 142.48976,37.2143984 143.491248,37.1695894 C144.546897,37.1006041 145.542231,37.6628766 146.020823,38.5985671 L139.937034,41.1072167 Z M132.540426,47.6487589 L135.534291,47.6487589 L135.534291,27.801847 L132.540426,27.801847 L132.540426,47.6487589 Z M127.641374,36.0581623 L127.529304,36.0581623 C126.616675,35.0462505 125.312015,34.468631 123.94307,34.4704053 C120.309042,34.645176 117.453167,37.6180972 117.453167,41.2262982 C117.453167,44.8344992 120.309042,47.8074204 123.94307,47.982187 C125.316452,48.0050884 126.629569,47.4237248 127.529304,46.3944341 L127.625364,46.3944341 L127.625364,47.3629634 C127.625364,49.9510007 126.232496,51.3323458 123.9911,51.3323458 C122.464234,51.296903 121.110471,50.3495798 120.564966,48.9348388 L117.95534,50.0145108 C118.960257,52.4387094 121.348223,54.0154233 123.9911,53.9998862 C127.497284,53.9998862 130.39509,51.9515694 130.39509,46.9660251 L130.39509,34.9467353 L127.641374,34.9467353 L127.641374,36.0581623 Z M124.21524,45.3941497 C122.074526,45.2070486 120.432686,43.42898 120.432686,41.2977471 C120.432686,39.1665142 122.074526,37.3884456 124.21524,37.2013445 C125.249676,37.2539904 126.218865,37.718587 126.903074,38.4898004 C127.587282,39.2610138 127.92855,40.2735144 127.849504,41.2977471 C127.937774,42.3266895 127.597599,43.3466329 126.90807,44.1204348 C126.218541,44.8942366 125.239735,45.3544778 124.19923,45.3941497 L124.21524,45.3941497 Z M163.247554,27.801847 L156.091096,27.801847 L156.091096,47.6487589 L159.084961,47.6487589 L159.084961,40.1228099 L163.263564,40.1228099 C165.589308,40.2885139 167.813557,39.1519132 169.027363,37.1774853 C170.241169,35.2030573 170.241169,32.7215996 169.027363,30.7471716 C167.813557,28.7727437 165.589308,27.636143 163.263564,27.801847 L163.247554,27.801847 Z M163.247554,37.3283647 L159.068951,37.3283647 L159.068951,30.5645371 L163.311594,30.5645371 C165.208217,30.5645371 166.745734,32.0893344 166.745734,33.9702672 C166.745734,35.8512 165.208217,37.3759973 163.311594,37.3759973 L163.247554,37.3283647 Z M181.707053,34.4704094 C179.479606,34.3383702 177.38546,35.5295804 176.375732,37.5030175 L179.033388,38.5985671 C179.568771,37.6199844 180.636186,37.0471031 181.755083,37.1378344 C182.522806,37.0489116 183.294368,37.2695704 183.896463,37.7502468 C184.498557,38.2309233 184.880708,38.9313202 184.957078,39.6941166 L184.957078,39.9005245 C183.995507,39.3956176 182.923159,39.1338386 181.835133,39.1384031 C178.969348,39.1384031 176.071543,40.726156 176.071543,43.5999889 C176.128679,44.8379738 176.688312,46.0004007 177.62312,46.8228056 C178.557928,47.6452106 179.788415,48.0576571 181.034635,47.9663095 C182.570358,48.0756788 184.04382,47.3450427 184.877028,46.061006 L184.973088,46.061006 L184.973088,47.6487589 L187.854883,47.6487589 L187.854883,40.0116672 C187.854883,36.5344882 185.197228,34.518042 181.787103,34.518042 L181.707053,34.4704094 Z M181.338824,45.3465171 C180.362216,45.3465171 179.001368,44.8543137 179.001368,43.663499 C179.001368,42.075746 180.698425,41.5517876 182.203363,41.5517876 C183.154422,41.5285141 184.09435,41.7588105 184.925058,42.2186438 C184.718043,43.9959983 183.222435,45.3505509 181.418874,45.3941497 L181.338824,45.3465171 Z M198.357426,34.9467353 L194.931291,43.5523563 L194.835231,43.5523563 L191.281017,34.9467353 L188.079023,34.9467353 L193.410344,46.9819027 L190.368449,53.6663426 L193.490394,53.6663426 L201.6875,34.9467353 L198.357426,34.9467353 Z M171.444661,47.6487589 L174.438526,47.6487589 L174.438526,27.801847 L171.444661,27.801847 L171.444661,47.6487589 Z" id="Google-Play" fill="#FFFFFF"></path>
                    <path d="M75.3793275,16.3935461 C75.4341299,17.5742616 75.0016807,18.7257708 74.1828917,19.5793693 C73.267937,20.5284311 71.9917931,21.0439333 70.6733467,20.9970606 C68.6511154,20.9812569 66.8354171,19.7565268 66.0657797,17.889151 C65.2961423,16.0217751 65.7225521,13.8756665 67.1478493,12.4431254 C68.0739432,11.499048 69.3502146,10.9800607 70.6733467,11.009505 C71.3477499,11.0072612 72.0154859,11.1427812 72.6355014,11.4077329 C73.2127489,11.640224 73.7266254,12.0059612 74.1350343,12.4749836 L73.289553,13.3192267 C72.6440309,12.5525209 71.6749786,12.1336065 70.6733467,12.1882595 C69.6665051,12.1833277 68.701109,12.58822 67.999769,13.3095723 C67.298429,14.0309247 66.9216883,15.0064664 66.9564195,16.0112473 C66.9350463,17.5295942 67.8305779,18.9116837 69.2263506,19.5144713 C70.6221234,20.117259 72.2440157,19.822361 73.3374104,18.7669843 C73.8282833,18.2358067 74.1113975,17.5460197 74.1350343,16.8236322 L70.6733467,16.8236322 L70.6733467,15.6767359 L75.3155176,15.6767359 C75.3580678,15.9133058 75.3794222,16.1531911 75.3793275,16.3935461 L75.3793275,16.3935461 Z M82.685562,12.4112671 L78.3783932,12.4112671 L78.3783932,15.4377991 L82.3027025,15.4377991 L82.3027025,16.5846955 L78.3783932,16.5846955 L78.3783932,19.6112275 L82.685562,19.6112275 L82.685562,20.7899821 L77.102195,20.7899821 L77.102195,11.2325126 L82.685562,11.2325126 L82.685562,12.4112671 Z M87.9179745,20.7899821 L86.6896338,20.7899821 L86.6896338,12.4112671 L84.0096176,12.4112671 L84.0096176,11.2325126 L90.6618006,11.2325126 L90.6618006,12.4112671 L87.9179745,12.4112671 L87.9179745,20.7899821 Z M95.3518288,20.7899821 L95.3518288,11.2325126 L96.5801696,11.2325126 L96.5801696,20.7899821 L95.3518288,20.7899821 Z M102.035917,20.7899821 L100.807576,20.7899821 L100.807576,12.4112671 L98.1275599,12.4112671 L98.1275599,11.2325126 L104.69998,11.2325126 L104.69998,12.4112671 L102.035917,12.4112671 L102.035917,20.7899821 Z M117.158865,19.547511 C115.217432,21.475297 112.081208,21.475297 110.139775,19.547511 C108.257812,17.558337 108.257812,14.4482285 110.139775,12.4590545 C111.068207,11.5252048 112.331511,11 113.64932,11 C114.967129,11 116.230433,11.5252048 117.158865,12.4590545 C119.04886,14.4450327 119.04886,17.5615328 117.158865,19.547511 L117.158865,19.547511 Z M111.049066,18.7510552 C112.486901,20.180797 114.811739,20.180797 116.249574,18.7510552 C117.661684,17.1966461 117.661684,14.8258485 116.249574,13.2714394 C114.811739,11.8416976 112.486901,11.8416976 111.049066,13.2714394 C109.636956,14.8258485 109.636956,17.1966461 111.049066,18.7510552 L111.049066,18.7510552 Z M120.301503,20.7899821 L120.301503,11.2325126 L121.801036,11.2325126 L126.459159,18.6714097 L126.459159,11.2325126 L127.6875,11.2325126 L127.6875,20.7899821 L126.411302,20.7899821 L121.545796,13.0006444 L121.545796,20.7899821 L120.301503,20.7899821 Z" id="GET-IT-ON" stroke="#FFFFFF" stroke-width="0.2" fill="#FFFFFF"></path>
                    <g id="Icon" transform="translate(15.687500, 11.000000)">
                        <path d="M1.19990588,0.872307692 C0.675342189,1.50409808 0.410575757,2.31289949 0.459576471,3.13384615 L0.459576471,38.8661538 C0.410575757,39.6871005 0.675342189,40.4959019 1.19990588,41.1276923 L1.31256471,41.2407692 L21.2531765,21.2423077 L21.2531765,20.7738462 L1.31256471,0.759230769 L1.19990588,0.872307692 Z" id="Shape" fill="url(#linearGradient-1)"></path>
                        <path d="M27.8517647,27.9138462 L21.2531765,21.2423077 L21.2531765,20.7738462 L27.8517647,14.0861538 L27.9966118,14.1669231 L35.8988235,18.6738462 C38.152,19.95 38.152,22.05 35.8988235,23.3423077 L28.0288,27.8330769 L27.8517647,27.9138462 Z" id="Shape" fill="url(#linearGradient-2)"></path>
                        <path d="M28.0448941,27.8169231 L21.2531765,21 L1.19990588,41.1276923 C2.14739512,41.96369 3.55355626,42.0044029 4.54748235,41.2246154 L28.0609882,27.8169231" id="Shape" fill="url(#linearGradient-3)"></path>
                        <path d="M28.0448941,14.1830769 L4.53138824,0.775384615 C3.53746214,-0.004402907 2.13130101,0.0363099685 1.18381176,0.872307692 L21.2531765,21 L28.0448941,14.1830769 Z" id="Shape" fill="url(#linearGradient-4)"></path>
                        <path d="M27.8517647,27.6715385 L4.53138824,40.9984615 C3.57706908,41.7146204 2.26688386,41.7146204 1.31256471,40.9984615 L1.19990588,41.1115385 L1.31256471,41.2246154 C2.26508828,41.9461742 3.57886466,41.9461742 4.53138824,41.2246154 L28.0448941,27.8169231 L27.8517647,27.6715385 Z" id="Shape" fill="#000000" opacity="0.2"></path>
                        <path d="M1.19990588,40.9015385 C0.675342189,40.2697481 0.410575757,39.4609467 0.459576471,38.64 L0.459576471,38.8823077 C0.410575757,39.7032544 0.675342189,40.5120558 1.19990588,41.1438462 L1.31256471,41.0307692 L1.19990588,40.9015385 Z M35.8988235,23.1 L27.8517647,27.6715385 L27.9966118,27.8169231 L35.8988235,23.3261538 C36.8114728,22.8958367 37.4252997,22.0086456 37.5082353,21 C37.3248098,21.9124305 36.7304162,22.68801 35.8988235,23.1 Z" id="Shape" fill="#000000" opacity="0.12"></path>
                        <path d="M4.53138824,1.00153846 L35.8988235,18.9 C36.7304162,19.31199 37.3248098,20.0875695 37.5082353,21 C37.4252997,19.9913544 36.8114728,19.1041633 35.8988235,18.6738462 L4.53138824,0.775384615 C2.27821176,-0.500769231 0.443482353,0.565384615 0.443482353,3.15 L0.443482353,3.39230769 C0.491764706,0.791538462 2.29430588,-0.274615385 4.53138824,1.00153846 L4.53138824,1.00153846 Z" id="Shape" fill="#FFFFFF" opacity="0.25"></path>
                    </g>
                </g>
            </g>
        </g>
    </g>
</svg>