<?xml version="1.0" encoding="UTF-8"?>
<svg width="18px" height="18px" viewBox="0 0 18 18" version="1.1" xmlns="http://www.w3.org/2000/svg" xmlns:xlink="http://www.w3.org/1999/xlink">
    <title>FDF47C00-D7F8-426B-AF99-1F431D1AED7F</title>
    <g id="Page-1" stroke="none" stroke-width="1" fill="none" fill-rule="evenodd">
        <g id="Home-Page" transform="translate(-220.000000, -5625.000000)" fill="#0E1F3B" fill-rule="nonzero">
            <g id="Group-18" transform="translate(0.000000, 5168.000000)">
                <g id="Social" transform="translate(171.000000, 457.000000)">
                    <g id="Icon/Insta" transform="translate(49.000000, 0.000000)">
                        <path d="M13.125,0 L4.875,0 C2.18432439,0.00412997753 0.00412997753,2.18432439 0,4.875 L0,13.125 C0.00412997753,15.8156756 2.18432439,17.99587 4.875,18 L13.125,18 C15.8156756,17.99587 17.99587,15.8156756 18,13.125 L18,4.875 C17.99587,2.18432439 15.8156756,0.00412997753 13.125,0 Z M9,13.125 C6.72182541,13.125 4.875,11.2781746 4.875,9 C4.875,6.72182541 6.72182541,4.875 9,4.875 C11.2781746,4.875 13.125,6.72182541 13.125,9 C13.125,10.094018 12.690403,11.1432279 11.9168155,11.9168155 C11.1432279,12.690403 10.094018,13.125 9,13.125 Z M13.875,4.875 C13.2536797,4.875 12.75,4.37132034 12.75,3.75 C12.75,3.12867966 13.2536797,2.625 13.875,2.625 C14.4963203,2.625 15,3.12867966 15,3.75 C15,4.04836855 14.8814736,4.3345167 14.6704951,4.54549513 C14.4595167,4.75647355 14.1733686,4.875 13.875,4.875 Z" id="Shape"></path>
                    </g>
                </g>
            </g>
        </g>
    </g>
</svg>