<?xml version="1.0" encoding="UTF-8"?>
<svg width="18px" height="18px" viewBox="0 0 18 18" version="1.1" xmlns="http://www.w3.org/2000/svg" xmlns:xlink="http://www.w3.org/1999/xlink">
    <title>5811F994-D1D2-4610-8F1F-4ECD758DC108</title>
    <g id="Page-1" stroke="none" stroke-width="1" fill="none" fill-rule="evenodd">
        <g id="Home-Page" transform="translate(-271.000000, -5626.000000)" fill="#0E1F3B" fill-rule="nonzero">
            <g id="Group-18" transform="translate(0.000000, 5168.000000)">
                <g id="Social" transform="translate(171.000000, 457.000000)">
                    <g id="Icon/Linkedin" transform="translate(100.000000, 1.000000)">
                        <path d="M4.19565217,6 C4.47179455,6 4.69565217,6.22385763 4.69565217,6.5 L4.69565217,17.5 C4.69565217,17.7761424 4.47179455,18 4.19565217,18 L0.5,18 C0.223857625,18 2.07423479e-13,17.7761424 2.07389661e-13,17.5 L2.07389661e-13,6.5 C2.07355843e-13,6.22385763 0.223857625,6 0.5,6 L4.19565217,6 Z M13.1562231,5.25104323 L13.3856187,5.25247641 C16.0765886,5.25247641 18,6.8613018 18,10.1756579 L18,10.1756579 L18,17.5604302 C18,17.8031979 17.7978543,18 17.548495,18 L17.548495,18 L14.8394649,18 C14.5901055,18 14.3879599,17.8031979 14.3879599,17.5604302 L14.3879599,17.5604302 L14.3879599,10.9668835 C14.3879599,9.75304511 13.3772315,8.76903464 12.1304348,8.76903464 C10.8836381,8.76903464 9.8729097,9.75304511 9.8729097,10.9668835 L9.8729097,10.9668835 L9.8729097,17.5604302 C9.8729097,17.8031979 9.67076402,18 9.42140468,18 L9.42140468,18 L6.71237458,18 C6.46301525,18 6.26086957,17.8031979 6.26086957,17.5604302 L6.26086957,17.5604302 L6.26086957,6.13161596 C6.26086957,5.88884828 6.46301525,5.69204619 6.71237458,5.69204619 L6.71237458,5.69204619 L9.42140468,5.69204619 C9.67076402,5.69204619 9.8729097,5.88884828 9.8729097,6.13161596 C9.87227664,6.28240443 9.96812046,6.41764067 10.1131428,6.47058647 C10.2581652,6.52353228 10.4217132,6.48299665 10.5230769,6.36898365 C11.2724147,5.61984686 12.3122774,5.2142583 13.3856187,5.25247641 Z M2.34782609,4.26325641e-14 C3.64449463,4.26325641e-14 4.69565217,1.00735931 4.69565217,2.25 C4.69565217,3.49264069 3.64449463,4.5 2.34782609,4.5 C1.05115754,4.5 2.07389661e-13,3.49264069 2.07389661e-13,2.25 C2.07389661e-13,1.00735931 1.05115754,4.26325641e-14 2.34782609,4.26325641e-14 Z" id="Combined-Shape"></path>
                    </g>
                </g>
            </g>
        </g>
    </g>
</svg>