<?xml version="1.0" encoding="UTF-8"?>
<svg width="67px" height="70px" viewBox="0 0 67 70" version="1.1" xmlns="http://www.w3.org/2000/svg" xmlns:xlink="http://www.w3.org/1999/xlink">
    <title>AF3780CD-42B8-4343-B2E8-43BCB47F5F8F</title>
    <g id="Page-1" stroke="none" stroke-width="1" fill="none" fill-rule="evenodd" stroke-linecap="round" stroke-linejoin="round">
        <g id="Home-Page" transform="translate(-832.000000, -1951.000000)" stroke-width="2">
            <g id="Service/icon/eye" transform="translate(828.814815, 1951.277778)">
                <g id="Service/icon/primary" transform="translate(4.515046, 0.862963)">
                    <ellipse id="Oval" stroke="#0C488E" cx="54.6320602" cy="23.7314815" rx="9.48159722" ry="9.06111111"></ellipse>
                    <path d="M9.21069444,2.58888889 C4.12376837,2.58888889 0,6.45250568 0,11.2185185 L0,22.7246914 L0,22.7246914 C0,30.6680461 6.87294728,37.1074074 15.3511574,37.1074074 C23.8293675,37.1074074 30.7023148,30.6680461 30.7023148,22.7246914 L30.7023148,11.2185185 C30.7023148,6.45250568 26.5785464,2.58888889 21.4916204,2.58888889" id="Shape" stroke="#2EAD5A"></path>
                    <path d="M15.3511574,38.545679 L15.3511574,61.5580247 C15.3511574,64.7353666 18.0878966,67.3111111 21.4638355,67.3111111 C24.8397743,67.3111111 27.5765135,64.7353666 27.5765135,61.5580247 L27.5765135,44.9661235 C27.5765135,40.9944461 30.9974375,37.7747654 35.2173611,37.7747654 C39.4372847,37.7747654 42.8582087,40.9944461 42.8582087,44.9661235 L42.8582087,55.8049383 C42.8582087,58.9822802 45.5949479,61.5580247 48.9708868,61.5580247 C52.3468256,61.5580247 55.0835648,58.9822802 55.0835648,55.8049383 L55.0835648,32.7925926" id="Shape" stroke="#2EAD5A"></path>
                    <line x1="9.93310185" y1="0" x2="9.93310185" y2="7.76666667" id="Shape" stroke="#0C488E"></line>
                    <line x1="21.6722222" y1="0" x2="21.6722222" y2="7.76666667" id="Shape" stroke="#0C488E"></line>
                </g>
            </g>
        </g>
    </g>
</svg>