<?xml version="1.0" encoding="UTF-8"?>
<svg width="74px" height="66px" viewBox="0 0 74 66" version="1.1" xmlns="http://www.w3.org/2000/svg" xmlns:xlink="http://www.w3.org/1999/xlink">
    <title>722D5CA9-7B90-45F3-849A-3B676234F96E</title>
    <g id="Page-1" stroke="none" stroke-width="1" fill="none" fill-rule="evenodd" stroke-linecap="round" stroke-linejoin="round">
        <g id="Home-Page" transform="translate(-1087.000000, -2039.000000)" stroke-width="2">
            <g id="Service/icon/eye" transform="translate(1087.814815, 2037.277778)">
                <g id="Service/icon/heart" transform="translate(0.903009, 3.451852)">
                    <path d="M0,37.7082466 L17.6086806,37.7082466 C18.0906337,37.7082466 18.5444604,37.4892088 18.8336322,37.1170282 L21.6693954,33.4692105 C21.9672429,33.0852877 22.4395664,32.8647497 22.936276,32.8776766 C23.4329856,32.8906035 23.8923125,33.1353877 24.1682969,33.5342446 L27.6287854,38.5596011 C27.9317627,38.9975759 28.4532762,39.2468492 28.9977928,39.21396 C29.5423094,39.1810708 30.0275641,38.8709881 30.2716187,38.3999721 L34.9876827,29.2952085 C35.2699188,28.7499599 35.8699529,28.4278692 36.4986986,28.4841142 C37.1274444,28.5403593 37.6559422,28.963404 37.8295706,29.5494324 L41.7922893,42.9375735 C41.9651527,43.5239564 42.4932631,43.9477212 43.1220889,44.0046275 C43.7509146,44.0615339 44.3514183,43.7399043 44.6341772,43.1947535 L47.0442697,38.5418646 C47.3030165,38.0406326 47.8330031,37.7236057 48.4131532,37.7230271 L70.4347222,37.7230271" id="Shape" stroke="#0C488E"></path>
                    <path d="M63.0216612,31.9296296 C65.3805206,27.4882454 66.6784498,22.6062411 66.8226852,17.6325362 C66.8226852,-4.68834729 38.3806455,-6.43012516 34.7658565,15.9226909 C31.1510674,-6.43012516 2.70902778,-4.68834729 2.70902778,19.3481874 C2.76704456,23.6740545 3.71178317,27.9476406 5.4903393,31.9296296" id="Shape" stroke="#2EAD5A"></path>
                    <path d="M12.6421296,44.0111111 C18.7569088,51.171461 25.9917633,57.4804656 34.1168547,62.7376991 C34.6823475,63.1022874 35.4460627,63.0793485 35.9838196,62.681623 C43.3942413,57.1527638 50.1032524,50.8905926 55.9865741,44.0111111" id="Shape" stroke="#2EAD5A"></path>
                </g>
            </g>
        </g>
    </g>
</svg>