<?xml version="1.0" encoding="UTF-8"?>
<svg width="74px" height="71px" viewBox="0 0 74 71" version="1.1" xmlns="http://www.w3.org/2000/svg" xmlns:xlink="http://www.w3.org/1999/xlink">
    <title>4D3B23BE-3D0E-4A1C-A20A-F393E3BB9858</title>
    <g id="Page-1" stroke="none" stroke-width="1" fill="none" fill-rule="evenodd" stroke-linecap="round" stroke-linejoin="round">
        <g id="Home-Page" transform="translate(-1087.000000, -1776.000000)" stroke-width="2">
            <g id="Service/icon/eye" transform="translate(1088.685185, 1777.140741)">
                <g id="Service/icon/teeth" transform="translate(0.032639, 0.000000)">
                    <ellipse id="Oval" stroke="#0C488E" cx="51.9230324" cy="23.7314815" rx="18.5116898" ry="17.6907407"></ellipse>
                    <path d="M60.5016204,18.1222222 L51.5058131,29.3358922 C51.1002512,29.8387391 50.4813987,30.1531731 49.8087929,30.1981346 C49.1361871,30.2430962 48.4756438,30.0141856 47.9974482,29.5704152 L43.3444444,25.2273981" id="Shape" stroke="#0CA543"></path>
                    <path d="M44.059455,1.17062802 C42.4159308,0.401302701 40.612485,0.00104315747 38.784967,0 C33.8308034,0.00187108377 29.2257725,2.4561236 26.5943637,6.49698551 C23.9615587,2.45607784 19.3556658,0.00197792491 14.4007202,0 C6.44794757,0 0,7.56811014 0,17.1672599 C0,27.553657 3.45957772,34.1823382 7.88285151,38.4287913 C5.55996209,43.8657772 4.38593106,49.6939001 4.42935389,55.5726386 C4.42460018,58.7665286 4.75871266,61.9525352 5.42649053,65.0810647 C5.70841219,66.3795335 6.89705244,67.3100925 8.27501805,67.3111111 C9.8212949,67.3084011 11.1191139,66.188751 11.2907484,64.7093903 C12.5067686,54.0742348 18.8908752,45.979342 26.5974037,45.979342 C34.3039323,45.979342 40.700199,54.0800879 41.9040591,64.7093903 C42.0756935,66.188751 43.3735125,67.3084011 44.9197894,67.3111111 C46.2970293,67.3098328 47.4846485,66.3790798 47.7652769,65.0810647 C48.434551,61.9527555 48.7686791,58.7666007 48.7625,55.5726386 C48.7633831,52.5398557 48.4579401,49.5141712 47.8503983,46.5383169" id="Shape" stroke="#06A33E"></path>
                </g>
            </g>
        </g>
    </g>
</svg>