<?xml version="1.0" encoding="UTF-8"?>
<svg width="74px" height="67px" viewBox="0 0 74 67" version="1.1" xmlns="http://www.w3.org/2000/svg" xmlns:xlink="http://www.w3.org/1999/xlink">
    <title>D86E5EE8-81FD-43EC-A61D-1528E4047F7A</title>
    <g id="Page-1" stroke="none" stroke-width="1" fill="none" fill-rule="evenodd" stroke-linecap="round" stroke-linejoin="round">
        <g id="Home-Page" transform="translate(-828.000000, -1691.000000)" stroke-width="2">
            <g id="Service/icon/eye" transform="translate(828.814815, 1690.277778)">
                <g transform="translate(0.903009, 2.588889)">
                    <line x1="52.0873801" y1="0" x2="49.6655093" y2="12.0814815" id="Shape" stroke="#0C488E"></line>
                    <line x1="18.0601852" y1="0" x2="20.482056" y2="12.0814815" id="Shape" stroke="#0C488E"></line>
                    <line x1="52.0006912" y1="63.8592593" x2="49.6655093" y2="52.6407407" id="Shape" stroke="#0C488E"></line>
                    <line x1="18.0601852" y1="63.8592593" x2="20.3953671" y2="52.6407407" id="Shape" stroke="#0C488E"></line>
                    <line x1="35.2173611" y1="3.45185185" x2="35.2173611" y2="6.04074074" id="Shape" stroke="#0C488E"></line>
                    <line x1="35.2173611" y1="12.0814815" x2="35.2173611" y2="14.6703704" id="Shape" stroke="#0C488E"></line>
                    <line x1="35.2173611" y1="20.7111111" x2="35.2173611" y2="23.3" id="Shape" stroke="#0C488E"></line>
                    <ellipse id="Oval" stroke="#0C488E" cx="35.6688657" cy="33.2240741" rx="1.35451389" ry="1.29444444"></ellipse>
                    <path d="M26.0307021,9.49259259 C14.6187435,12.5692973 5.20184216,20.2885662 0.283559175,30.5981679 C-0.0945197249,31.3745673 -0.0945197249,32.2708697 0.283559175,33.0472691 C2.623095,37.860616 12.6243044,55.2296296 35.2173611,55.2296296 C57.8104178,55.2296296 67.8116272,37.85769 70.151163,33.044343 C70.5292419,32.2679437 70.5292419,31.3716412 70.151163,30.5952419 C65.2331903,20.2860217 55.8159779,12.5675681 44.4040201,9.49259259" id="Shape" stroke="#2EAD5A"></path>
                    <path d="M23.3282627,18.9851852 C17.6077164,23.7685228 15.6379099,31.3558852 18.3764903,38.0585779 C21.1150707,44.7612705 27.9939475,49.1888889 35.6688657,49.1888889 C43.343784,49.1888889 50.2226608,44.7612705 52.9612412,38.0585779 C55.6998215,31.3558852 53.7300151,23.7685228 48.0094688,18.9851852" id="Shape" stroke="#2EAD5A"></path>
                    <path d="M27.7385843,29.3407407 C26.3256585,32.4368617 27.2781841,36.0609215 30.050875,38.1382785 C32.8235658,40.2156355 36.7081471,40.2156355 39.480838,38.1382785 C42.2535289,36.0609215 43.2060545,32.4368617 41.7931287,29.3407407" id="Shape" stroke="#0C488E"></path>
                </g>
            </g>
        </g>
    </g>
</svg>