<svg xmlns="http://www.w3.org/2000/svg" viewBox="0 0 24 24" width="24" height="24">
	<style>
		tspan { white-space:pre }
		.shp0 { opacity: 0.6;fill: #ffffff } 
	</style>
	<path id="Oval" class="shp0" d="M11.77 7.68C9.77 7.68 8.15 6.06 8.15 4.06C8.15 2.07 9.77 0.45 11.77 0.45C13.77 0.45 15.38 2.07 15.38 4.06C15.38 6.06 13.77 7.68 11.77 7.68Z" />
	<path id="Path-2" fill-rule="evenodd" class="shp0" d="M1.24 15.18C1.67 17 2.09 18.2 2.5 18.79C5.32 22.77 8.72 24.07 11.49 24.07C14.04 24.07 17.37 22.78 19.99 19.4C20.56 18.67 21.17 17.26 21.82 15.18C17.9 12.03 14.55 10.45 11.77 10.45C8.98 10.45 5.47 12.03 1.24 15.18Z" />
</svg>